<?xml version="1.0" encoding="utf-8"?>
<!-- Generator: Adobe Illustrator 19.0.0, SVG Export Plug-In . SVG Version: 6.00 Build 0)  -->
<svg version="1.1" id="Layer_1" xmlns="http://www.w3.org/2000/svg" xmlns:xlink="http://www.w3.org/1999/xlink" x="0px" y="0px"
	 viewBox="-90 258 431 278" style="enable-background:new -90 258 431 278;" xml:space="preserve">
<style type="text/css">
	.st0{fill:none;stroke:#F8BD45;stroke-width:16;}
	.st1{fill:#F8BD45;}
	.st2{fill:#A0A0A0;}
	.st3{fill:none;stroke:#A0A0A0;stroke-width:4;stroke-linecap:round;stroke-dasharray:10,9;}
	.st4{fill:none;stroke:#8D6108;stroke-width:4;stroke-linecap:round;stroke-dasharray:10,9;}
</style>
<title>Group 2</title>
<desc>Created with Sketch.</desc>
<g id="Oikos_1366_UI_v2_menu2-Copy" transform="translate(-749.000000, -2966.000000)">
	<g id="Details" transform="translate(59.000000, 2936.000000)">
		<g id="Group-2" transform="translate(690.000000, 30.000000)">
			<path id="Rectangle-3" class="st0" d="M146,268.3L17.3,397L146,525.7L274.7,397L146,268.3z"/>
			
				<g id="Group-4" transform="translate(388.933832, 141.222259) rotate(-270.000000) translate(-388.933832, -141.222259) translate(261.433832, 99.222259)">
				<circle id="Oval-6" class="st1" cx="383.5" cy="96.5" r="6.5"/>
			</g>
			<path id="Rectangle-3_1_" class="st2" d="M158,385L158,385c6.6,6.6,6.6,17.4,0,24l0,0c-6.6,6.6-17.4,6.6-24,0l0,0
				c-6.6-6.6-6.6-17.4,0-24l0,0C140.6,378.4,151.4,378.4,158,385z"/>
			<path id="Oval" class="st2" d="M12,492c54.2,0,98-42.6,98-95s-43.8-95-98-95s-98,42.6-98,95S-42.2,492,12,492z M12,496
				c-56.3,0-102-44.3-102-99s45.7-99,102-99s102,44.3,102,99S68.3,496,12,496z"/>
			<path id="Line-2" class="st3" d="M-78,397c136,0,201.9,0,197.8,0"/>
			<path id="Line-2-Copy-2" class="st4" d="M178,397c98.2,0,145.8,0,142.9,0"/>
			<path id="Line-2-Copy" class="st4" d="M171,377l91-91L171,377z"/>
			<path id="Line-2-Copy_1_" class="st4" d="M171,417l91,91L171,417z"/>
		</g>
	</g>
	
		<rect x="1011.4" y="3239.2" transform="matrix(-0.7071 0.7071 -0.7071 -0.7071 4031.2095 4820.4785)" class="st2" width="11.8" height="11.8"/>
	<rect x="1012.4" y="3475.3" class="st2" width="11.8" height="11.8"/>
</g>
</svg>
