<?xml version="1.0" encoding="utf-8"?>
<!-- Generator: Adobe Illustrator 19.0.0, SVG Export Plug-In . SVG Version: 6.00 Build 0)  -->
<svg version="1.1" id="Layer_1" xmlns="http://www.w3.org/2000/svg" xmlns:xlink="http://www.w3.org/1999/xlink" x="0px" y="0px"
	 viewBox="-67 116 476 562" style="enable-background:new -67 116 476 562;" xml:space="preserve">
<style type="text/css">
	.st0{fill:#F8BD45;}
	.st1{opacity:0.9;fill:none;stroke:#FFFFFF;stroke-width:6;enable-background:new    ;}
	.st2{fill:none;stroke:#F8BD45;stroke-width:6;}
</style>
<title>Group 12</title>
<desc>Created with Sketch.</desc>
<g id="Dskt_UI">
	<g id="Glyff_1366_UI_v2_fix_menu3.3" transform="translate(-776.000000, -4563.000000)">
		<g id="Roadmap" transform="translate(59.000000, 4473.000000)">
			<g id="September" transform="translate(56.000000, 52.000000)">
				<g transform="translate(661.000000, 38.000000)">
					<g id="Group-12">
						<polygon id="Fill-1" class="st0" points="83,247 -67,397 83,547 259,547 409,397 259,247 						"/>
						<circle id="Oval-3-Copy-13" class="st1" cx="12" cy="397" r="9"/>
						<circle id="Oval-3-Copy-17" class="st1" cx="327" cy="397" r="8.8"/>
						<path id="Combined-Shape" class="st2" d="M166.7,170l3.8,3.8l3.8-3.8l-3.8-3.8L166.7,170z M170.5,229c5,0,9-4,9-9s-4-9-9-9
							c-5,0-9,4-9,9S165.5,229,170.5,229z M170.5,129c2.8,0,5-2.2,5-5s-2.2-5-5-5c-2.8,0-5,2.2-5,5S167.7,129,170.5,129z
							 M269.7,219.5l1.4,5.1l5.1-1.4l-1.4-5.1L269.7,219.5z M293.5,185.9c4.3,2.5,9.8,1,12.3-3.3c2.5-4.3,1-9.8-3.3-12.3
							c-4.3-2.5-9.8-1-12.3,3.3C287.7,177.9,289.2,183.4,293.5,185.9z M71.3,219.5l-5.1-1.4l-1.4,5.1l5.1,1.4L71.3,219.5z
							 M47.5,185.9c4.3-2.5,5.8-8,3.3-12.3c-2.5-4.3-8-5.8-12.3-3.3s-5.8,8-3.3,12.3C37.7,186.9,43.2,188.4,47.5,185.9z"/>
						<path id="Combined-Shape-Copy-4" class="st2" d="M166.7,624l3.8-3.8l3.8,3.8l-3.8,3.8L166.7,624z M170.5,565c5,0,9,4,9,9
							s-4,9-9,9c-5,0-9-4-9-9S165.5,565,170.5,565z M170.5,665c2.8,0,5,2.2,5,5s-2.2,5-5,5c-2.8,0-5-2.2-5-5S167.7,665,170.5,665z
							 M269.7,574.5l1.4-5.1l5.1,1.4l-1.4,5.1L269.7,574.5z M293.5,608.1c4.3-2.5,9.8-1,12.3,3.3s1,9.8-3.3,12.3
							c-4.3,2.5-9.8,1-12.3-3.3C287.7,616.1,289.2,610.6,293.5,608.1z M71.3,574.5l-5.1,1.4l-1.4-5.1l5.1-1.4L71.3,574.5z
							 M47.5,608.1c4.3,2.5,5.8,8,3.3,12.3s-8,5.8-12.3,3.3c-4.3-2.5-5.8-8-3.3-12.3C37.7,607.1,43.2,605.6,47.5,608.1z"/>
					</g>
				</g>
			</g>
		</g>
	</g>
</g>
</svg>
