<?xml version="1.0" encoding="utf-8"?>
<!-- Generator: Adobe Illustrator 19.0.0, SVG Export Plug-In . SVG Version: 6.00 Build 0)  -->
<svg version="1.1" id="Layer_1" xmlns="http://www.w3.org/2000/svg" xmlns:xlink="http://www.w3.org/1999/xlink" x="0px" y="0px"
	 viewBox="-177 271 256 252" style="enable-background:new -177 271 256 252;" xml:space="preserve">
<style type="text/css">
	.st0{fill:none;stroke:#A0A0A0;stroke-width:4;}
	.st1{fill:none;stroke:#F8BD45;stroke-width:16;}
	.st2{fill:#5A5A5A;}
	.st3{fill:none;stroke:#8D6108;stroke-width:4;stroke-linecap:round;stroke-dasharray:4,12;}
	.st4{fill:#F8BD45;}
	.st5{fill:#A0A0A0;}
</style>
<title>Group</title>
<desc>Created with Sketch.</desc>
<g id="Details" transform="translate(59.000000, 2936.000000)">
	<g id="Group" transform="translate(168.000000, 365.000000)">
		<path id="Combined-Shape" class="st0" d="M-401-2903.2c26.9-32,72.9-53,125-53s98.1,21,125,53c-26.9,32-72.9,53-125,53
			S-374.1-2871.3-401-2903.2z"/>
		<path id="Rectangle-3" class="st1" d="M-276-2943.8l-40.6,40.6l40.6,40.6l40.6-40.6L-276-2943.8z"/>
		<circle id="Oval-6" class="st2" cx="-357.5" cy="-2982.8" r="6.5"/>
		<circle id="Oval-6-Copy" class="st2" cx="-276.5" cy="-2785.8" r="6.5"/>
		<path id="Line-2-Copy" class="st3" d="M-241-2931.9l42.4-42.4L-241-2931.9z"/>
		<path id="Line-2-Copy-7" class="st3" d="M-241-2874.2l42.4,42.4L-241-2874.2z"/>
		<path id="Line-2-Copy-4" class="st3" d="M-347-2974.2l42.4,42.4L-347-2974.2z"/>
		<path id="Line-2-Copy-6" class="st3" d="M-347-2831.9l42.4-42.4L-347-2831.9z"/>
		<path id="Line-2-Copy-3" class="st3" d="M-276.3-2952.9v-59.4V-2952.9z"/>
		<path id="Line-2-Copy-5" class="st3" d="M-276.3-2798.9v-59.4V-2798.9z"/>
		<path id="Rectangle-3_1_" class="st2" d="M-261.9-2917.4L-261.9-2917.4c7.8,7.8,7.8,20.5,0,28.3l0,0c-7.8,7.8-20.5,7.8-28.3,0l0,0
			c-7.8-7.8-7.8-20.5,0-28.3l0,0C-282.3-2925.2-269.7-2925.2-261.9-2917.4z"/>
	</g>
</g>
<rect x="-55.3" y="273.5" transform="matrix(-0.7071 -0.7071 0.7071 -0.7071 -281.8279 442.3123)" class="st4" width="12" height="12"/>
<rect x="30.3" y="313.4" class="st5" width="11.3" height="11.3"/>
<rect x="-134.9" y="474.3" class="st5" width="11.3" height="11.3"/>
<rect x="30.3" y="471.8" class="st4" width="11.3" height="11.3"/>
</svg>
