<?xml version="1.0" encoding="utf-8"?>
<!-- Generator: Adobe Illustrator 19.0.0, SVG Export Plug-In . SVG Version: 6.00 Build 0)  -->
<svg version="1.1" id="Layer_1" xmlns="http://www.w3.org/2000/svg" xmlns:xlink="http://www.w3.org/1999/xlink" x="0px" y="0px"
	 viewBox="-157 257 297 279" style="enable-background:new -157 257 297 279;" xml:space="preserve">
<style type="text/css">
	.st0{fill:none;stroke:#2b2b2b;stroke-width:4;}
	.st1{fill:#F8BD45;}
	.st2{fill:none;stroke:#F8BD45;stroke-width:16;}
	.st3{fill:none;stroke:#8D6108;stroke-width:4;}
	.st4{fill:#355978;}
</style>
<title>Group 6</title>
<desc>Created with Sketch.</desc>
<g id="Dskt_UI">
	<g id="Oikos_1366_UI_v2_menu2-Copy" transform="translate(-180.000000, -3884.000000)">
		<g id="Details" transform="translate(59.000000, 2936.000000)">
			<g id="Group-6" transform="translate(121.000000, 948.000000)">
				<path id="Rectangle-8-Copy-5" class="st0" d="M41,295.6v154.3l-76-35V260.6L41,295.6z"/>
				<polygon id="Rectangle-8-Copy-6" class="st1" points="3,318.9 -77,282 -77,440.7 3,477.6 				"/>
				<path id="Rectangle-8-Copy-9" class="st2" d="M132,382v141.1l-64-29.5V352.5L132,382z"/>
				<path id="Rectangle-8-Copy-7" class="st0" d="M-39,345.6v154.3l-76-35V310.6L-39,345.6z"/>
				<path id="Rectangle-8-Copy-8" class="st3" d="M-79,370.2v154.3l-76-35V335.1L-79,370.2z"/>
			</g>
		</g>
	</g>
</g>
<path id="Combined-Shape-Copy-9" class="st4" d="M46.4,418.2c0.7-1.5,2.5-2.2,4-1.5c1.5,0.7,2.2,2.5,1.5,4s-2.5,2.2-4,1.5
	C46.3,421.5,45.7,419.7,46.4,418.2z M65.4,427.1c0.7-1.5,2.5-2.2,4-1.5s2.2,2.5,1.5,4s-2.5,2.2-4,1.5
	C65.4,430.4,64.7,428.6,65.4,427.1z M-29.7,382.7c0.7-1.5,2.5-2.2,4-1.5c1.5,0.7,2.2,2.5,1.5,4s-2.5,2.2-4,1.5
	C-29.8,386-30.4,384.2-29.7,382.7z M84.5,436c0.7-1.5,2.5-2.2,4-1.5s2.2,2.5,1.5,4s-2.5,2.2-4,1.5C84.4,439.3,83.8,437.5,84.5,436z
	 M-10.7,391.6c0.7-1.5,2.5-2.2,4-1.5s2.2,2.5,1.5,4s-2.5,2.2-4,1.5C-10.8,394.9-11.4,393.1-10.7,391.6z M103.5,444.8
	c0.7-1.5,2.5-2.2,4-1.5c1.5,0.7,2.2,2.5,1.5,4s-2.5,2.2-4,1.5C103.4,448.1,102.8,446.3,103.5,444.8z M8.3,400.5
	c0.7-1.5,2.5-2.2,4-1.5s2.2,2.5,1.5,4s-2.5,2.2-4,1.5S7.6,402,8.3,400.5z M122.5,453.7c0.7-1.5,2.5-2.2,4-1.5c1.5,0.7,2.2,2.5,1.5,4
	s-2.5,2.2-4,1.5C122.5,457,121.8,455.2,122.5,453.7z M27.4,409.3c0.7-1.5,2.5-2.2,4-1.5c1.5,0.7,2.2,2.5,1.5,4s-2.5,2.2-4,1.5
	C27.3,412.6,26.7,410.8,27.4,409.3z"/>
</svg>
