<?xml version="1.0" encoding="utf-8"?>
<!-- Generator: Adobe Illustrator 19.0.0, SVG Export Plug-In . SVG Version: 6.00 Build 0)  -->
<svg version="1.1" id="Layer_1" xmlns="http://www.w3.org/2000/svg" xmlns:xlink="http://www.w3.org/1999/xlink" x="0px" y="0px"
	 viewBox="-174 265 262 263" style="enable-background:new -174 265 262 263;" xml:space="preserve">
<style type="text/css">
	.st0{fill:#F8BD45;}
	.st1{fill:none;stroke:#F8BD45;stroke-width:4;stroke-linecap:round;stroke-dasharray:10,9;}
	.st2{fill:#8D6108;}
	.st3{fill:#FFFFFF;}
	.st4{fill:none;stroke:#8D6108;stroke-width:4;}
</style>
<title>Group Copy 2</title>
<desc>Created with Sketch.</desc>
<g id="Dskt_UI">
	<g id="Oikos_1366_UI_v2_menu2-Copy" transform="translate(-834.000000, -3606.000000)">
		<g id="Details" transform="translate(59.000000, 2936.000000)">
			
				<g id="Group-Copy-2" transform="translate(906.000000, 801.500000) scale(-1, 1) translate(-906.000000, -801.500000) translate(775.000000, 670.000000)">
				<polygon id="Rectangle-3-Copy" class="st0" points="191.3,282 419,396.7 191.3,511.3 				"/>
				<path id="Line" class="st1" d="M410,510h-17H205"/>
				<path id="Line-Copy-2" class="st1" d="M411,284h-17H206"/>
				<path id="Rectangle-3" class="st2" d="M203,270L203,270c6.6,6.6,6.6,17.4,0,24l0,0c-6.6,6.6-17.4,6.6-24,0l0,0
					c-6.6-6.6-6.6-17.4,0-24l0,0C185.6,263.3,196.3,263.3,203,270z"/>
				<path id="Rectangle-3-Copy-13" class="st0" d="M431,499L431,499c6.6,6.6,6.6,17.4,0,24l0,0c-6.6,6.6-17.4,6.6-24,0l0,0
					c-6.6-6.6-6.6-17.4,0-24l0,0C413.6,492.3,424.3,492.3,431,499z"/>
				<path id="Combined-Shape-Copy" class="st3" d="M302.3,397c0-1.7,1.3-3,3-3c1.7,0,3,1.3,3,3s-1.3,3-3,3
					C303.6,400,302.3,398.7,302.3,397z M323.3,397c0-1.7,1.3-3,3-3c1.7,0,3,1.3,3,3s-1.3,3-3,3C324.6,400,323.3,398.7,323.3,397z
					 M218.3,397c0-1.7,1.3-3,3-3s3,1.3,3,3s-1.3,3-3,3S218.3,398.7,218.3,397z M344.3,397c0-1.7,1.3-3,3-3c1.7,0,3,1.3,3,3
					s-1.3,3-3,3C345.6,400,344.3,398.7,344.3,397z M239.3,397c0-1.7,1.3-3,3-3s3,1.3,3,3s-1.3,3-3,3S239.3,398.7,239.3,397z
					 M365.3,397c0-1.7,1.3-3,3-3c1.7,0,3,1.3,3,3s-1.3,3-3,3C366.6,400,365.3,398.7,365.3,397z M260.3,397c0-1.7,1.3-3,3-3
					c1.7,0,3,1.3,3,3s-1.3,3-3,3C261.6,400,260.3,398.7,260.3,397z M386.3,397c0-1.7,1.3-3,3-3c1.7,0,3,1.3,3,3s-1.3,3-3,3
					C387.6,400,386.3,398.7,386.3,397z M281.3,397c0-1.7,1.3-3,3-3c1.7,0,3,1.3,3,3s-1.3,3-3,3C282.6,400,281.3,398.7,281.3,397z"/>
				<path id="Rectangle-3-Copy_1_" class="st4" d="M417,285.2V508L195.8,396.7L417,285.2z"/>
			</g>
		</g>
	</g>
</g>
</svg>
